<svg width="20" height="20" viewBox="0 0 20 20" fill="none" xmlns="http://www.w3.org/2000/svg">
<path fill-rule="evenodd" clip-rule="evenodd" d="M15.8337 1.66406H4.16699C2.78628 1.66406 1.66699 2.78335 1.66699 4.16406V12.4974C1.66699 13.8781 2.78628 14.9974 4.16699 14.9974H8.82181L6.07774 17.7415C5.7523 18.0669 5.7523 18.5945 6.07774 18.92C6.40317 19.2454 6.93081 19.2454 7.25625 18.92L10.0003 16.1759L12.7444 18.92C13.0698 19.2454 13.5975 19.2454 13.9229 18.92C14.2484 18.5945 14.2484 18.0669 13.9229 17.7415L11.1788 14.9974H15.8337C17.2144 14.9974 18.3337 13.8781 18.3337 12.4974V4.16406C18.3337 2.78335 17.2144 1.66406 15.8337 1.66406ZM4.41107 11.9756C4.08563 11.6502 4.08563 11.1225 4.41107 10.7971L7.7444 7.46377C8.04693 7.16125 8.5294 7.13696 8.86077 7.40758L9.92231 8.27451L12.7235 5.26322C12.8808 5.09415 13.1011 4.99792 13.332 4.99747C13.5629 4.99703 13.7837 5.0924 13.9416 5.26085L15.6083 7.03863C15.923 7.37439 15.906 7.90176 15.5703 8.21653C15.2345 8.53131 14.7072 8.51429 14.3924 8.17853L13.336 7.05176L10.6105 9.98173C10.3112 10.3034 9.81354 10.3375 9.47321 10.0596L8.39013 9.17507L5.58958 11.9756C5.26414 12.3011 4.73651 12.3011 4.41107 11.9756Z" fill="#0361AE"/>
</svg>
