<svg width="11" height="16" viewBox="0 0 11 16" fill="none" xmlns="http://www.w3.org/2000/svg">
<path fill-rule="evenodd" clip-rule="evenodd" d="M7.85267 10.256C9.62071 9.36422 10.8333 7.53206 10.8333 5.41667C10.8333 2.42512 8.40821 0 5.41667 0C2.42512 0 0 2.42512 0 5.41667C0 7.53206 1.21262 9.36422 2.98066 10.256L3.68863 13.0878C3.7247 13.2321 3.85433 13.3333 4.00305 13.3333C4.33193 13.3333 4.65634 13.3957 4.97984 13.4578C5.03382 13.4682 5.08792 13.4786 5.14186 13.4887C5.23693 13.5064 5.33215 13.5183 5.41667 13.5183C5.50118 13.5183 5.5964 13.5064 5.69148 13.4887C5.74542 13.4786 5.79936 13.4682 5.85334 13.4579C6.17685 13.3957 6.5014 13.3333 6.83029 13.3333C6.979 13.3333 7.10864 13.2321 7.14471 13.0878L7.85267 10.256ZM6.51752 4.62741C6.73351 4.30258 6.6972 3.86002 6.40975 3.57496C6.08296 3.25088 5.55533 3.25308 5.23125 3.57987L3.99163 4.82987C3.75474 5.06875 3.68471 5.42663 3.8141 5.73717C3.9307 6.01703 4.18865 6.20897 4.48471 6.24416C4.28139 6.58895 4.35113 7.04009 4.6681 7.30554C5.02094 7.60104 5.54652 7.55456 5.84202 7.20172L6.88888 5.95172C7.09672 5.70354 7.14204 5.35745 7.00509 5.06413C6.9073 4.85468 6.72923 4.69921 6.51752 4.62741Z" fill="#0361AE"/>
<path d="M4.58333 14.1667C4.1231 14.1667 3.75 14.5398 3.75 15C3.75 15.4602 4.1231 15.8333 4.58333 15.8333H6.25C6.71024 15.8333 7.08333 15.4602 7.08333 15C7.08333 14.5398 6.71024 14.1667 6.25 14.1667H4.58333Z" fill="#0361AE"/>
</svg>
