<svg width="19" height="6" viewBox="0 0 19 6" fill="none" xmlns="http://www.w3.org/2000/svg">
<path fill-rule="evenodd" clip-rule="evenodd" d="M16.0141 5.86339C16.0357 5.86339 16.0538 5.86973 16.0694 5.88339C16.0765 5.88929 16.0822 5.89667 16.0862 5.90502C16.0901 5.91336 16.0922 5.92246 16.0923 5.93169C16.0923 5.9506 16.0838 5.96634 16.0694 5.98C16.0542 5.99343 16.0344 6.00058 16.0141 6C15.9938 6.00058 15.974 5.99343 15.9588 5.98C15.9516 5.97418 15.9458 5.96681 15.9419 5.95845C15.9379 5.95008 15.9359 5.94094 15.936 5.93169C15.936 5.91279 15.9432 5.89596 15.9588 5.88339C15.974 5.86996 15.9938 5.86281 16.0141 5.86339ZM16.9454 5.5082L16.8757 5.54601C16.8143 5.47563 16.7315 5.44098 16.6258 5.44098C16.5416 5.44098 16.4707 5.46404 16.4154 5.51137C16.3602 5.55858 16.3313 5.61541 16.3313 5.68262C16.3313 5.72678 16.3445 5.76776 16.3698 5.80667C16.3961 5.84584 16.4327 5.87709 16.4755 5.89705C16.5226 5.91857 16.574 5.92933 16.6258 5.92852C16.7279 5.92852 16.8107 5.89388 16.8757 5.8235L16.9454 5.86339C16.913 5.90754 16.8685 5.94011 16.8131 5.96426C16.7567 5.98841 16.693 6 16.6222 6C16.5128 6 16.4226 5.97049 16.3505 5.90962C16.2784 5.84863 16.2424 5.77617 16.2424 5.68885C16.2424 5.63115 16.2592 5.5765 16.2929 5.5271C16.3271 5.47607 16.3749 5.43565 16.4311 5.41049C16.4899 5.38208 16.5561 5.36841 16.6294 5.36841C16.675 5.36841 16.7195 5.37366 16.7615 5.38634C16.8 5.39576 16.8366 5.41173 16.8697 5.43355C16.8997 5.45315 16.9254 5.47853 16.9454 5.5082ZM17.4429 5.36841C17.5486 5.36841 17.6375 5.40098 17.7071 5.46831C17.7709 5.53027 17.8021 5.60164 17.8021 5.68579C17.8021 5.76994 17.7697 5.84339 17.7024 5.90656C17.635 5.96841 17.5486 6 17.4429 6C17.3371 6 17.2506 5.96852 17.1833 5.90645C17.116 5.84339 17.0824 5.76984 17.0824 5.68568C17.0824 5.60273 17.1136 5.53027 17.1772 5.46929C17.2469 5.40208 17.3359 5.36841 17.4429 5.36841ZM17.4429 5.44404C17.3683 5.44404 17.3059 5.46721 17.253 5.51552C17.1989 5.56284 17.1724 5.62066 17.1724 5.68787C17.1724 5.73093 17.1857 5.77093 17.2097 5.80874C17.2333 5.84634 17.2671 5.87656 17.3071 5.89596C17.3494 5.9164 17.3959 5.92683 17.4429 5.92645C17.4921 5.92645 17.5365 5.91596 17.5774 5.89596C17.6178 5.87663 17.6519 5.84642 17.6759 5.80874C17.6995 5.77281 17.712 5.7308 17.712 5.68787C17.712 5.62066 17.6856 5.56284 17.6315 5.51552C17.5786 5.46721 17.5162 5.44404 17.4429 5.44404ZM17.9655 5.38317H18.0545V5.48721C18.0857 5.44831 18.1169 5.41989 18.1494 5.40306C18.1931 5.38023 18.2418 5.36834 18.2912 5.36841C18.3248 5.36841 18.356 5.37366 18.3861 5.38525C18.4134 5.39501 18.4384 5.41039 18.4594 5.43038C18.4814 5.45397 18.4982 5.48189 18.5087 5.51235C18.5359 5.46796 18.5739 5.43112 18.6192 5.40525C18.6628 5.38063 18.7121 5.36793 18.7622 5.36841C18.8103 5.36841 18.8523 5.37891 18.8883 5.4C18.924 5.41989 18.9526 5.45038 18.9701 5.48721C18.9882 5.52503 18.9965 5.58175 18.9965 5.65738V5.98525H18.9064V5.65628C18.9064 5.59224 18.9004 5.54809 18.8896 5.52404C18.8791 5.49862 18.86 5.47771 18.8355 5.46503C18.8103 5.45038 18.7802 5.44306 18.7441 5.44306C18.7022 5.44306 18.6625 5.45355 18.6277 5.47661C18.5929 5.497 18.5655 5.52794 18.5495 5.56492C18.5327 5.60175 18.5243 5.66372 18.5243 5.74994V5.98525H18.4366V5.67738C18.4366 5.60492 18.4305 5.55552 18.421 5.52918C18.4102 5.50294 18.3912 5.48084 18.3669 5.46612C18.3388 5.45002 18.3068 5.44203 18.2744 5.44306C18.2335 5.44306 18.1951 5.45355 18.159 5.47563C18.1243 5.49601 18.0967 5.52643 18.0797 5.56284C18.0629 5.59858 18.0545 5.6553 18.0545 5.72994V5.98525H17.9655V5.38306V5.38317ZM13.0782 1.87301C13.7409 1.87301 14.2965 2.32721 14.4426 2.93596C14.453 2.96478 14.4584 2.99516 14.4585 3.02579C14.4585 3.17082 14.3379 3.2894 14.1905 3.2894C14.0418 3.2894 13.9407 3.16962 13.9213 3.02579C13.8701 2.62798 13.4046 2.38831 13.0782 2.38831C12.5922 2.38831 12.1999 2.7753 12.1999 3.25224C12.1999 3.72929 12.5922 4.11628 13.0782 4.11628C13.9139 4.11628 13.7823 3.353 14.1515 3.353C14.3001 3.353 14.4207 3.47158 14.4207 3.61661C14.4173 3.65962 14.4066 3.70175 14.389 3.7412C14.188 4.26131 13.6764 4.63158 13.0782 4.63158C12.3034 4.63158 11.676 4.01443 11.676 3.25235C11.676 2.61355 11.609 1.31333 11.609 0.660328C11.609 0.592022 11.6651 0.536831 11.7332 0.536831H11.7856C11.8539 0.536831 11.8539 0.592022 11.8588 0.660328L11.9623 2.41705C11.9771 2.39776 11.9925 2.37898 12.0086 2.36076L11.9367 0.36306C11.9343 0.291148 11.9964 0.232459 12.0695 0.232459C12.1414 0.232459 12.1987 0.291148 12.2011 0.36306L12.2742 2.12229C12.2851 2.11508 12.2973 2.10667 12.3095 2.09825V0.130601C12.3095 0.0586885 12.3692 0 12.4423 0C12.5153 0 12.5751 0.0586885 12.5751 0.130601V1.96525C12.7357 1.90383 12.9062 1.87256 13.0782 1.87301ZM17.434 1.82918C17.518 1.82918 17.6657 1.83038 17.7677 1.83038V0.942076C17.7681 0.859684 17.8011 0.780778 17.8596 0.7226C17.9181 0.664421 17.9973 0.631699 18.0799 0.631585C18.1626 0.631498 18.2419 0.664139 18.3004 0.722338C18.3589 0.780536 18.3919 0.859532 18.3921 0.941967H18.3933V1.83038C18.5146 1.83038 18.6202 1.82678 18.7246 1.82678C18.9048 1.8388 19.0045 1.96055 18.9961 2.12645C18.9876 2.29126 18.8856 2.38557 18.7451 2.39639L18.3933 2.39749V4.34503H18.3909C18.3848 4.42309 18.3494 4.49599 18.2917 4.54912C18.2341 4.60226 18.1584 4.63171 18.0799 4.63158C18.0013 4.63153 17.9257 4.60205 17.8678 4.54898C17.81 4.49591 17.7743 4.42312 17.7677 4.34503V2.3976L17.3967 2.39639C17.2983 2.39639 17.1674 2.29366 17.1626 2.12885C17.1577 1.96415 17.2851 1.83268 17.434 1.82918ZM1.54038 1.82809H1.58016C1.5933 1.82918 1.60645 1.82918 1.61971 1.83038C1.63286 1.83038 1.64612 1.83148 1.65938 1.83279C1.67253 1.83388 1.68567 1.83388 1.69773 1.83639L1.73739 1.83989C1.74945 1.84229 1.7626 1.8435 1.77574 1.8459C1.7878 1.8471 1.80095 1.84951 1.813 1.85191L1.85146 1.85902C1.87666 1.86382 1.90077 1.86984 1.92597 1.87574L1.96191 1.88656C1.97506 1.88885 1.98711 1.89366 1.99916 1.89727L2.03521 1.90798C2.04727 1.91279 2.05921 1.91639 2.06995 1.92109C2.082 1.9247 2.09405 1.92951 2.106 1.93421C2.14084 1.94732 2.17448 1.96295 2.20922 1.97847C2.24285 1.99519 2.27529 2.01311 2.30772 2.03093C2.39363 2.07974 2.47446 2.13696 2.549 2.20175L2.57672 2.22557C2.58626 2.23399 2.59469 2.24229 2.60434 2.25071C2.63063 2.27585 2.65584 2.30317 2.68104 2.3294C2.69791 2.34863 2.71358 2.36656 2.72925 2.38557C2.75307 2.41383 2.77587 2.44292 2.79762 2.47279C2.80486 2.4835 2.81077 2.49311 2.818 2.50382C2.82524 2.51333 2.83236 2.52415 2.83839 2.53366V2.53486C2.85888 2.5659 2.87805 2.59694 2.89602 2.62918V2.63038C2.90084 2.64109 2.90687 2.65191 2.91289 2.66262C2.91892 2.67333 2.92363 2.68415 2.92966 2.69607C2.93448 2.70678 2.94051 2.71869 2.94533 2.72951C2.95004 2.74153 2.95607 2.75213 2.96089 2.76415C2.97053 2.78678 2.97886 2.80951 2.9885 2.83333C2.99212 2.84535 2.99694 2.85727 3.00055 2.86918C3.00417 2.8812 3.00888 2.89191 3.01261 2.90503L3.02334 2.94087C3.02696 2.95279 3.02937 2.9647 3.03299 2.97661C3.03649 2.98973 3.0389 3.00175 3.04252 3.01377L3.04975 3.05191C3.05216 3.06382 3.05457 3.07574 3.05698 3.08885C3.05939 3.10197 3.06181 3.11399 3.06411 3.1271C3.06531 3.13913 3.06772 3.15224 3.06893 3.16535C3.07013 3.17727 3.07254 3.19038 3.07375 3.20361L3.07736 3.24175C3.07846 3.25486 3.07846 3.26798 3.07978 3.28109C3.07978 3.29421 3.08087 3.30732 3.08087 3.32044V3.35989C3.08087 3.6835 3.06893 3.7659 3.06049 4.09661H3.05939V4.12055C3.05698 4.22798 3.05457 4.29486 3.05337 4.40229C3.01009 4.55038 2.87082 4.60175 2.74602 4.60175C2.69457 4.60178 2.64395 4.58888 2.59883 4.56424C2.55371 4.5396 2.51554 4.50401 2.48786 4.46076C2.47762 4.43828 2.47228 4.41388 2.47219 4.38918C2.46978 4.30798 2.46858 4.22557 2.46617 4.14437L2.46507 3.37661V3.35989C2.46507 3.18678 2.2777 2.72109 2.00037 2.5635C1.99434 2.55869 1.98722 2.55519 1.98108 2.55148C1.97517 2.54798 1.96794 2.54557 1.96191 2.54197C1.95468 2.53847 1.94755 2.53486 1.94153 2.53126C1.9343 2.52885 1.92838 2.52535 1.92104 2.52295C1.91392 2.51934 1.90789 2.51574 1.90066 2.51333C1.89343 2.51093 1.8863 2.50743 1.87907 2.50503C1.87304 2.50262 1.86592 2.49902 1.85869 2.49661L1.8371 2.48951L1.81541 2.48229C1.80818 2.47989 1.80106 2.4776 1.79382 2.47639C1.78659 2.47399 1.77947 2.47158 1.77224 2.47038C1.7638 2.46798 1.75657 2.46678 1.74945 2.46437C1.74221 2.46328 1.73498 2.46087 1.72655 2.45967C1.71942 2.45847 1.71219 2.45727 1.70375 2.45607C1.69632 2.45378 1.68869 2.45217 1.68096 2.45126C1.67373 2.45016 1.66661 2.45016 1.65817 2.44885C1.65094 2.44776 1.6425 2.44645 1.63538 2.44645C1.62694 2.44535 1.61971 2.44415 1.61127 2.44415C1.60415 2.44295 1.59572 2.44295 1.58848 2.44295C1.58016 2.44175 1.57292 2.44175 1.56449 2.44175H1.51649C1.50926 2.44175 1.50082 2.44175 1.49359 2.44284C1.48527 2.44284 1.47803 2.44284 1.4696 2.44415C1.46127 2.44415 1.45404 2.44525 1.44681 2.44656C1.43848 2.44656 1.43125 2.44765 1.42281 2.44885C1.41558 2.45005 1.40725 2.45005 1.40002 2.45126C1.39279 2.45246 1.38435 2.45366 1.37723 2.45607L1.35433 2.45967C1.3472 2.46208 1.33997 2.46317 1.33153 2.46437C1.3243 2.46678 1.31718 2.46798 1.30995 2.47038C1.30272 2.47148 1.29559 2.47399 1.28836 2.47639C1.27992 2.4788 1.27269 2.47989 1.26557 2.48229L1.24388 2.48951C1.23675 2.49191 1.22952 2.49432 1.22349 2.49661C1.21626 2.49902 1.20914 2.50262 1.20191 2.50503C1.19468 2.50743 1.18745 2.51093 1.18153 2.51333C1.1743 2.51574 1.16706 2.51934 1.16104 2.52295H1.15994C1.15392 2.52535 1.14668 2.52885 1.14066 2.53126C1.13343 2.53486 1.1263 2.53847 1.12028 2.54197C1.11304 2.54557 1.10713 2.54798 1.09979 2.55158C1.09387 2.55519 1.08773 2.5588 1.08061 2.56361C0.941702 2.64263 0.825877 2.75644 0.744587 2.8938C0.663298 3.03115 0.61936 3.18729 0.617117 3.34678V3.3635L0.618322 4.3988C0.618322 4.52055 0.470617 4.61956 0.321817 4.61607C0.201724 4.61366 0.0324337 4.53847 0.0300231 4.38918C0.0215859 3.96066 0 3.77781 0 3.35989V3.32055C0.00120531 3.30743 0.00120531 3.29432 0.00241061 3.2812C0.00241061 3.26809 0.00350634 3.25486 0.00482122 3.24175L0.00843714 3.2035C0.00953287 3.19038 0.0108478 3.17727 0.0120531 3.16525C0.0143541 3.15213 0.0155594 3.13902 0.01797 3.1271C0.0191753 3.11399 0.0215859 3.10197 0.0239965 3.08885C0.0287522 3.06369 0.0339761 3.03863 0.0396655 3.01366C0.0420761 3.00164 0.0455825 2.98984 0.0479931 2.97661L0.0588408 2.94087L0.0696886 2.90503L0.0804268 2.86918C0.085248 2.85716 0.0888639 2.84535 0.0935755 2.83333C0.102013 2.80951 0.111655 2.78678 0.121298 2.76415C0.126119 2.75213 0.13083 2.74142 0.135652 2.72951C0.141678 2.71869 0.146499 2.70678 0.152526 2.69607C0.157238 2.68404 0.163264 2.67333 0.168085 2.66262L0.186055 2.63038V2.62929C0.204135 2.59694 0.222215 2.5659 0.242486 2.53486V2.53377C0.249717 2.52415 0.255744 2.51333 0.262976 2.50382C0.270208 2.49311 0.27733 2.4835 0.284562 2.47279C0.306148 2.44295 0.327734 2.41432 0.35184 2.38557C0.367399 2.36645 0.384273 2.34863 0.399833 2.32951C0.425035 2.30328 0.451442 2.27705 0.477849 2.25071C0.486286 2.24229 0.495928 2.23399 0.504256 2.22557C0.513898 2.21727 0.523541 2.21005 0.531869 2.20175C0.606874 2.1375 0.687683 2.08032 0.773258 2.03093C0.805692 2.01311 0.839331 1.99519 0.87297 1.97847C0.906499 1.96295 0.941344 1.94743 0.976188 1.93432C0.986926 1.92951 0.998979 1.9247 1.01092 1.9212C1.02298 1.91639 1.03503 1.91279 1.04708 1.90809L1.08302 1.89716C1.09507 1.89366 1.10713 1.88885 1.11907 1.88656C1.13112 1.88295 1.14307 1.87934 1.15633 1.87574C1.18032 1.86984 1.20552 1.86372 1.23073 1.85902L1.26798 1.85191C1.28113 1.84951 1.29318 1.8471 1.30633 1.8459C1.31839 1.8435 1.33153 1.84229 1.34468 1.83989L1.38314 1.83639C1.3964 1.83399 1.40966 1.83399 1.4216 1.83279C1.43475 1.83158 1.44801 1.83038 1.46127 1.83038C1.47442 1.82929 1.48757 1.82929 1.50082 1.82798H1.54049L1.54038 1.82809ZM4.64306 1.80404C5.41993 1.80404 6.0491 2.42984 6.0491 3.20109C6.0491 3.64535 6.02028 4.10623 6.02028 4.55989H5.74043C5.6755 4.55982 5.6126 4.53729 5.56247 4.49613C5.51234 4.45498 5.47807 4.39775 5.46551 4.33421C5.22646 4.50728 4.93845 4.60013 4.64306 4.59934C3.86739 4.59934 3.23833 3.97366 3.23833 3.20109C3.23833 2.42984 3.86739 1.80415 4.64306 1.80415V1.80404ZM4.64306 2.36295C5.10896 2.36295 5.48589 2.73902 5.48589 3.2012C5.48589 3.66437 5.10896 4.03934 4.64306 4.03934C4.17715 4.03934 3.80022 3.66448 3.80022 3.20109C3.80022 2.73902 4.17715 2.36284 4.64306 2.36284V2.36295ZM6.85589 2.54798L6.8583 4.30087C6.85781 4.37941 6.82626 4.45457 6.77051 4.51003C6.71477 4.56549 6.63932 4.59676 6.56059 4.59705H6.26277V2.23027C6.26277 2.16699 6.29159 2.08929 6.33246 2.02481C6.33958 2.03093 6.34561 2.03574 6.35163 2.04044C6.5138 2.14667 6.74423 2.22076 6.85589 2.54787V2.54798ZM7.07449 3.17005C7.07449 2.42033 7.68558 1.81377 8.43966 1.81377V1.81847C8.44919 1.81727 8.38926 1.81607 8.46968 1.81607C8.55011 1.81607 8.7434 1.93781 8.7434 2.0882C8.7434 2.2388 8.55252 2.35934 8.46968 2.35934C8.38673 2.35934 8.44087 2.35814 8.4264 2.35694C8.03501 2.36295 7.71089 2.80831 7.63638 3.07213C7.62424 3.11522 7.61935 3.16002 7.62191 3.2047L7.62553 4.36765C7.62553 4.51814 7.50193 4.60656 7.3505 4.60656H7.07558C7.07558 4.1671 7.07449 3.60951 7.07449 3.17005ZM10.0233 1.81377C10.799 1.81377 11.4282 2.43934 11.4282 3.21071C11.4282 3.65486 11.4005 4.11453 11.4005 4.56951H11.1207C11.0558 4.56923 10.993 4.54662 10.9429 4.5055C10.8928 4.46438 10.8585 4.40727 10.8458 4.34382C10.6064 4.51618 10.3186 4.60891 10.0233 4.60885C9.24645 4.60885 8.61728 3.98208 8.61728 3.21071C8.61728 2.43934 9.24645 1.81366 10.0233 1.81366V1.81377ZM10.0233 2.37246C10.4879 2.37246 10.8662 2.74732 10.8662 3.21071C10.8662 3.67399 10.488 4.04896 10.0233 4.04896C9.55742 4.04896 9.18048 3.67399 9.18048 3.21071C9.18048 2.74732 9.55742 2.37246 10.0233 2.37246ZM16.1168 1.8435C16.8816 1.8435 17.5011 2.45967 17.5011 3.22022C17.5011 3.26798 17.4988 3.31453 17.494 3.3612H15.2968C15.3303 3.55371 15.431 3.72818 15.5811 3.85379C15.7312 3.9794 15.9209 4.04807 16.1168 4.04765C16.2408 4.04797 16.3633 4.02057 16.4753 3.96749C16.5872 3.9144 16.6859 3.83697 16.7639 3.74087C17.0149 3.63814 17.2635 3.89847 17.1242 4.1647C16.9948 4.30155 16.8386 4.4105 16.6654 4.48484C16.4921 4.55918 16.3054 4.59733 16.1168 4.59694C15.352 4.59694 14.7325 3.98087 14.7325 3.22022C14.7325 2.45956 15.352 1.8435 16.1168 1.8435ZM16.8637 2.85246C16.7944 2.71398 16.6879 2.5975 16.5559 2.51609C16.424 2.43468 16.2719 2.39156 16.1168 2.39158C15.9618 2.39143 15.8098 2.43451 15.6781 2.51594C15.5463 2.59738 15.44 2.71394 15.3712 2.85246H16.8637Z" fill="#013BE5"/>
</svg>
