<svg width="17" height="16" viewBox="0 0 17 16" fill="none" xmlns="http://www.w3.org/2000/svg">
<path d="M11.7738 10.9404C11.827 10.7649 11.899 10.5974 11.9875 10.4405C11.2934 9.99631 10.8333 9.21855 10.8333 8.33333C10.8333 6.95262 11.9526 5.83333 13.3333 5.83333H15V5.46296C15 4.08225 13.8815 2.96296 12.5008 2.96296H9.58333L9.5742 2.95833H2.5C2.03976 2.95833 1.66667 2.58524 1.66667 2.125C1.66667 1.66476 2.03976 1.29167 2.5 1.29167H8.55354C8.23681 0.616931 7.90855 0 7.51147 0H1.85397C0.83005 0 0 0.830049 0 1.85397V10.8333C0 12.214 1.11929 13.3333 2.5 13.3333H10C10 12.2052 10.7472 11.2516 11.7738 10.9404Z" fill="#0361AE"/>
<path d="M15 9.16667H13.3333C12.8731 9.16667 12.5 8.79357 12.5 8.33333C12.5 7.8731 12.8731 7.5 13.3333 7.5H15V9.16667Z" fill="#0361AE"/>
<path d="M15 11.6667C15 11.2064 14.6269 10.8333 14.1667 10.8333C13.7064 10.8333 13.3333 11.2064 13.3333 11.6667V12.5H12.5C12.0398 12.5 11.6667 12.8731 11.6667 13.3333C11.6667 13.7936 12.0398 14.1667 12.5 14.1667H13.3333V15C13.3333 15.4602 13.7064 15.8333 14.1667 15.8333C14.6269 15.8333 15 15.4602 15 15V14.1667H15.8333C16.2936 14.1667 16.6667 13.7936 16.6667 13.3333C16.6667 12.8731 16.2936 12.5 15.8333 12.5H15V11.6667Z" fill="#0361AE"/>
</svg>
